<?xml version="1.0" encoding="utf-8"?>
<!-- Generator: Adobe Illustrator 18.0.0, SVG Export Plug-In . SVG Version: 6.00 Build 0)  -->
<!DOCTYPE svg PUBLIC "-//W3C//DTD SVG 1.1//EN" "http://www.w3.org/Graphics/SVG/1.1/DTD/svg11.dtd">
<svg version="1.1" id="Your_Icon" xmlns="http://www.w3.org/2000/svg" xmlns:xlink="http://www.w3.org/1999/xlink" x="0px" y="0px"
	 viewBox="0 986 836.1 238" enable-background="new 0 986 836.1 238" xml:space="preserve">
<path fill="#E591A9" d="M483.9,1037.7c-4.9,0-9.8,0.9-14.4,2.5l-13.5-33.4h9.2c2.5-0.3,4.9,0.3,5.5,0.9c0,0,0,1.2-3.1,4
	c-0.9,0.9-0.9,2.1,0,3.1c0.9,0.9,2.1,0.9,3.1,0c1.2-1.2,5.5-5.5,4-9.2c-1.8-4-8.2-4-9.5-3.6h-12.5c-0.6,0-1.2,0.3-1.8,0.9
	c-0.3,0.3-0.3,1.2-0.3,2.1l8.6,21.1h-65.4l-9.5-19.3h17.1c1.2,0,2.1-0.9,2.1-2.1s-0.9-2.1-2.1-2.1h-30.6c-1.2,0-2.1,0.9-2.1,2.1
	s0.9,2.1,2.1,2.1h8.6l11,22.7l-12.8,16.4c-7-4.9-15.6-7.9-24.8-7.9c-24.2-0.3-43.4,19.3-43.4,43.2c0,23.9,19.3,43.2,43.2,43.2
	c23.3,0,41.9-18.1,43.2-41h7.4c1.2,7,7,12.2,14.4,12.2c7.9,0,14.4-6.4,14.4-14.4c0-3.6-1.2-7-3.6-9.5l33.4-39.5l4,10.1
	c-14.4,7-24.8,21.7-24.8,38.9c0,23.9,19.6,43.2,43.2,43.2c23.6,0,43.2-19.6,43.2-43.2C526.7,1057.6,507.7,1037.7,483.9,1037.7z
	 M392,1034.3l16.9,34.9c-3.1,2.1-5.5,5.8-6.1,9.8h-7.4c-0.6-12-6.1-22.7-14.7-30.3L392,1034.3z M357.8,1078.7c0-0.3-0.3-0.3-0.3-0.6
	l20.5-26c7.4,6.4,12.2,16.2,12.8,26.6H357.8L357.8,1078.7z M352.3,1119.7c-21.4,0-38.6-17.4-38.6-38.9c0-21.4,17.4-38.9,38.9-38.9
	c8.2,0,15.9,2.5,22,7l-20.5,26c-0.3-0.3-1.2-0.3-1.5-0.3c-3.1,0-5.8,2.8-5.8,5.8c0,3.1,2.8,5.8,5.8,5.8c2.5,0,4.6-1.5,5.5-3.6h32.7
	C389.6,1103.8,373.1,1119.7,352.3,1119.7z M417.2,1090.9c-5.5,0-10.1-4.6-10.1-10.1c0-5.5,4.6-10.1,10.1-10.1
	c5.5,0,10.1,4.6,10.1,10.1S422.6,1090.9,417.2,1090.9z M424.5,1068.6c-2.1-1.2-4.6-2.1-7.4-2.1c-1.2,0-3.1,0.3-4,0.6l-17.4-35.5H456
	L424.5,1068.6z M483.9,1119.7c-21.4,0-38.9-17.4-38.9-38.9c0-15.3,9.2-28.4,22-34.9l12.5,30.6c-1.2,1.2-1.8,2.5-1.8,4.3
	c0,3.1,2.8,5.8,5.8,5.8c3,0,5.8-2.8,5.8-5.8c0-3.1-2.8-5.8-5.8-5.8l-12.5-30.6c4-1.2,8.2-2.1,12.5-2.1c21.4,0,38.9,17.4,38.9,38.9
	C522.4,1102.3,504.9,1119.7,483.9,1119.7z"/>
</svg>
