<?xml version="1.0" encoding="utf-8"?>
<!-- Generator: Adobe Illustrator 18.0.0, SVG Export Plug-In . SVG Version: 6.00 Build 0)  -->
<!DOCTYPE svg PUBLIC "-//W3C//DTD SVG 1.1//EN" "http://www.w3.org/Graphics/SVG/1.1/DTD/svg11.dtd">
<svg version="1.1" id="Your_Icon" xmlns="http://www.w3.org/2000/svg" xmlns:xlink="http://www.w3.org/1999/xlink" x="0px" y="0px"
	 viewBox="0 480 792 336" enable-background="new 0 480 792 336" xml:space="preserve">
<line fill="none" stroke="#5C5C5C" stroke-miterlimit="10" x1="27.6" y1="775.6" x2="769.6" y2="775.6"/>
<g>
	<g>
		<path fill="none" stroke="#000000" stroke-width="4" stroke-linecap="round" stroke-linejoin="round" stroke-miterlimit="10" d="
			M249.1,686.1C249,686,249.2,686.3,249.1,686.1c-3.6-5.8-28.5-2.9-28.5,20.3"/>
		<path fill="none" stroke="#000000" stroke-width="4" stroke-linecap="round" stroke-linejoin="round" stroke-miterlimit="10" d="
			M265.4,686c0.1-0.2-0.5,0.3-0.4,0.2c3.4-5.8,26.2-2.9,26.2,20.3"/>
		<path fill="none" stroke="#000000" stroke-width="4" stroke-linecap="round" stroke-linejoin="round" stroke-miterlimit="10" d="
			M224.8,724.2c-2.7-5-4.2-10.7-4.2-16.7c0-3,0.4-5.9,1.1-8.7"/>
		<path fill="none" stroke="#000000" stroke-width="4" stroke-linecap="round" stroke-linejoin="round" stroke-miterlimit="10" d="
			M226,726.2c-0.4-0.6-0.8-1.3-1.1-2"/>
		<path fill="none" stroke="#000000" stroke-width="4" stroke-linecap="round" stroke-linejoin="round" stroke-miterlimit="10" d="
			M259.7,742.6c-1.2,0.1-2.5,0.2-3.7,0.2c-1.1,0-4.3,0.3-5.3,0.2"/>
		<path fill="none" stroke="#000000" stroke-width="4" stroke-linecap="round" stroke-linejoin="round" stroke-miterlimit="10" d="
			M289.4,696.4c1.2,3.5,1.8,7.3,1.8,11.2c0,18.2-13.8,33.2-31.6,35.1"/>
		<g id="XMLID_95_">
			<g>
				
					<path fill="none" stroke="#000000" stroke-width="4" stroke-linecap="round" stroke-linejoin="round" stroke-miterlimit="10" d="
					M253,684.8c0,0-14,4.2-15.6,9.9c0,0,16.8-4.7,16.8-1.9c0,2.8,2.8,7,2.8,7"/>
				
					<path fill="none" stroke="#000000" stroke-width="4" stroke-linecap="round" stroke-linejoin="round" stroke-miterlimit="10" d="
					M261,684.8c0,0,14,4.2,15.6,9.9c0,0-16.8-4.7-16.8-1.9c0,2.8-2.8,7-2.8,7"/>
				
					<line fill="none" stroke="#000000" stroke-width="4" stroke-linecap="round" stroke-linejoin="round" stroke-miterlimit="10" x1="253.6" y1="684.8" x2="253.6" y2="680"/>
				
					<line fill="none" stroke="#000000" stroke-width="4" stroke-linecap="round" stroke-linejoin="round" stroke-miterlimit="10" x1="261" y1="684.8" x2="261" y2="680"/>
				
					<line fill="none" stroke="#000000" stroke-width="4" stroke-linecap="round" stroke-linejoin="round" stroke-miterlimit="10" x1="261" y1="680" x2="253.6" y2="680"/>
			</g>
		</g>
		<path stroke="#000000" stroke-width="4" stroke-linecap="round" stroke-linejoin="round" stroke-miterlimit="10" d="M278.4,725.4
			c-2.8,4.8-7.6,8.3-13.2,9.5"/>
	</g>
	<g id="XMLID_94_">
		<g>
			<path fill="none" stroke="#000000" stroke-width="4" stroke-linecap="round" stroke-linejoin="round" stroke-miterlimit="10" d="
				M227.9,727.3l28.3,9.1c0,0,2.8,1.6,2.4,3.7"/>
			<path fill="none" stroke="#000000" stroke-width="4" stroke-linecap="round" stroke-linejoin="round" stroke-miterlimit="10" d="
				M170.6,715.1c1.2-7.5,10.4-2.9,10.4-2.9l11,3.6l9.5,3.1l26.3,8.5"/>
			<path fill="none" stroke="#000000" stroke-width="4" stroke-linecap="round" stroke-linejoin="round" stroke-miterlimit="10" d="
				M167.2,736.6c-1.2,7.5,9,6,9,6l79,0.3c0,0,3.1-0.7,3.5-2.8"/>
			
				<polyline fill="none" stroke="#000000" stroke-width="4" stroke-linecap="round" stroke-linejoin="round" stroke-miterlimit="10" points="
				167.2,736.6 170.6,715.1 171,712.7 			"/>
			
				<polyline fill="none" stroke="#000000" stroke-width="4" stroke-linecap="round" stroke-linejoin="round" stroke-miterlimit="10" points="
				192.1,715.8 192.1,715.8 190.8,723.9 			"/>
			
				<polyline fill="none" stroke="#000000" stroke-width="4" stroke-linecap="round" stroke-linejoin="round" stroke-miterlimit="10" points="
				201.6,718.8 201.6,718.8 200.5,725.4 			"/>
			
				<line fill="none" stroke="#000000" stroke-width="4" stroke-linecap="round" stroke-linejoin="round" stroke-miterlimit="10" x1="210.9" y1="722.9" x2="210.3" y2="727"/>
			<path fill="none" stroke="#000000" stroke-width="4" stroke-linecap="round" stroke-linejoin="round" stroke-miterlimit="10" d="
				M167,725.1c-2.9,0.6-13.2,3.5-12.2,15.2"/>
			<path fill="none" stroke="#000000" stroke-width="4" stroke-linecap="round" stroke-linejoin="round" stroke-miterlimit="10" d="
				M167.8,725c0,0-0.3,0-0.7,0.1"/>
			<path fill="none" stroke="#000000" stroke-width="4" stroke-linecap="round" stroke-linejoin="round" stroke-miterlimit="10" d="
				M168,725C168,725,168,725.1,168,725c0,1.3,0.1,14.2-12.9,15.3"/>
			<path fill="none" stroke="#000000" stroke-width="4" stroke-linecap="round" stroke-linejoin="round" stroke-miterlimit="10" d="
				M168.3,724.7c0,0-4.1-33.2-36.2-30.5"/>
			<path fill="none" stroke="#000000" stroke-width="4" stroke-linecap="round" stroke-linejoin="round" stroke-miterlimit="10" d="
				M168.2,725.1c0,0-0.1,0-0.3,0c-0.2,0-0.5,0-0.9,0c0,0,0,0,0,0c-6-0.1-32.5-2-35-30.5"/>
		</g>
	</g>
</g>
<polygon points="672.4,578.7 672.4,578.7 672.4,578.7 "/>
<polygon points="672.4,578.7 672.4,578.7 672.4,578.7 "/>
<path d="M491,642.6c-2.7,0.6-5.5-1-6.1-3.7c-0.6-2.7,1.1-5.4,3.8-6s5.5,1,6.1,3.7C495.5,639.4,493.9,641.9,491,642.6z M489.4,635.5
	c-1.3,0.3-2.1,1.5-1.8,2.8c0.3,1.2,1.6,2,2.8,1.7c1.5-0.3,2.1-1.3,1.8-2.8C491.9,636,490.6,635.2,489.4,635.5z"/>
<circle cx="489.9" cy="637.7" r="1.3"/>
<path d="M514.7,594.1"/>
<path d="M656,568.8c-1.3-3.1-2.5-5.8-3.2-7.9c-1.1-2.9-3-3.3-3.9-3.1l-1.2,0.3l0.1,1.2c0,0.2,1.6,22.5-0.6,39.9
	c-0.4-0.2-0.7-0.4-1.1-0.6c-3.2-1.5-6.8-3-10.9-4.5c-2-0.7-4.2-1.4-6.4-2.1l-1.1-0.9c0,0-0.9-0.8-0.6-1.3c0.2-0.3,1.3-0.9,1.8-1.2
	c1.4-0.8,3-1.6,2.3-3.1c-1.1-2.4-4-3.1-8.5-2.1c-4.6,1.1-9.8,3.7-11.3,4.4c-1.9-0.3-3.7-0.6-5.6-0.9c-6.5-0.8-11.9-1.2-17-1.2
	c-0.5,0-1,0-1.5,0c1.1-0.6,2-1.2,2.5-1.8c0.3-0.4,0.7-1.8,0.7-1.8L574.1,561l-1.7,0.4c-0.4,0.5-11.1,13.3-15.6,27.6l-0.1,0.2
	c-1.1,0.2-2.3,0.4-3.4,0.7c-12.1,2.8-23.4,6.9-33.5,12.1c-5.6,2.8-10.8,6.1-14.8,8.6c-0.8,0.6-1.6,1.1-2.4,1.6c-1.5,1-2.9,2-4.3,3.1
	c-0.7,0.6-1.5,1.2-2.2,1.7c-1.3,1-2.6,2.1-3.9,3.1c-3.4,3-6.6,5.9-9.4,8.8c-1,0.8-1.9,1.5-2.7,2.4c-1.6,1.7-3.1,3.7-4.5,5.5
	c-0.8,1.1-1.6,2.1-2.3,2.9l0,0c-1.1,1.4-2,2.7-2.8,3.9c-0.4,0.6-0.8,1.2-1.2,1.7c-0.9,1.3-1.4,2.1-1.6,2.6c-1.8,2.2-2.4,3.9-1.8,5.1
	c0.3,0.7,1,2.3,2.5,2l0.5-0.2l0.3-0.3c0.5-0.5,1.2-1,2.1-1.5c3.3-1.1,9-2.1,13.3-1.2c0.1,0.1,0.1,0.1,0.1,0.2
	c0.3,1.2-2.1,3.8-5.4,4.6c-1.3,0.3-2.5,0.3-3.7,0c-1.9-0.4-5,1.4-5.9,2c-0.8,0.6-1.2,1.4-0.9,2.3c0.5,1.7,3.4,2.6,4.6,2.8
	c2.1,0.8,7.5,0.8,27.6-3.7l0,0.1c0.2-0.1,0.4-0.2,0.6-0.2c1.4-0.3,2.9-0.7,4.5-1c1.5-0.3,3-0.7,4.4-1c0,0,0,0,0,0l7.4,8.7
	c0.3,0.4,0.8,0.6,1.3,0.5c0,0,0,0,0.1,0c0.5-0.1,0.9-0.5,1-0.9c0-0.1,2.2-6.2,5.4-12l0.1,0c9.5,7.6,19.8,12.2,20.2,12.4l1.9-1.4
	l4.9-24.5c3.5-2.3,7.2-4.5,11.1-6c3.3-1.4,6.3-2.9,9.3-4.2c2.5-1.2,4.9-2.3,7.3-3.3c8.2,7.3,22.8,10.2,23.4,10.3c0.2,0,0.4,0,0.6,0
	c0.3-0.1,0.5-0.2,0.7-0.4c0.3-0.4,0.4-0.9,0.3-1.3l-4.2-15.3c6.9-1.4,13.7-2.4,19.9-3.3l0.9,0.8c4.7,4.4,13.4,6.1,13.7,6.2l1.4,0.3
	l1.2-7.3l-1.8-2.3c4.1-0.6,8.1-1.1,10.8-1.5c11.5,10.6,21.7,31.1,21.8,31.3l0.3,0.5l0.6,0.2c0.1,0,0.6,0.2,1.2,0
	c0.6-0.2,2.1-0.8,1.9-3.6c-0.4-5.8-6.5-28.2-9.3-34.2C669.2,600,661.6,582,656,568.8z M573.4,564.5l13.6,17.9l-4.5,2.7
	c-2.2,0.2-14.3,1.2-22.3,2.5C564,577.3,570.8,568,573.4,564.5z M623.3,586.3c1.1-0.2,3.3-0.7,4.5-0.2c-0.1,0.1-0.2,0.1-0.3,0.2
	c-1.4,0.8-2.4,1.4-2.9,2.2c-0.4,0.6-0.5,1.3-0.4,1.9l-8.1-1.5C618.2,587.9,620.8,586.9,623.3,586.3z M500.9,657.3
	c-19.2,4.3-25.1,4.5-26.6,3.9l-0.5-0.1c-0.4,0-1.1-0.2-1.6-0.5c1.4-0.9,2.6-1.1,2.9-1c1.6,0.4,3.3,0.4,5,0c4-0.9,7.1-3.7,7.6-6.5
	c1.2,0.7,2.1,1.6,2.4,3c0.5,1.9,3.4,1.2,2.9-0.7c-0.8-3.5-4.1-4.7-7.3-6.1c-3.4-1-7.2-1.1-10.5-0.3c-0.9,0.2-2.2,0.6-3.5,1.1
	c-0.9,0.3-1.6,0.5-2.3,0.8c0.2-0.4,0.5-0.7,0.8-1.1l0.4-0.5l0-0.1c0.2-0.4,0.7-1.1,1.2-1.9c0.4-0.5,0.8-1.1,1.2-1.7
	c0.9-1.3,2.1-3,3.5-4.7c2.1-2.7,4.6-5.6,7.5-8.7c0.3-0.3,0.6-0.6,0.8-0.8c4.1-3.2,9.4-4.9,14.9-4.7c5.1,0.1,9.6,1.9,11.8,4.5
	c2.3,2.8,2.9,8.3,1.4,13.5C511.1,650.5,506.7,655.2,500.9,657.3z M518.6,662.9l-4.7-5.5l1.1-0.6c2-0.5,4-1,5.8-1.4l0.2-0.1
	c0.4-0.1,0.8-0.2,1.1-0.2C520.6,658.2,519.3,661,518.6,662.9z M545.7,663.2c-3.3-1.6-11.3-5.8-18.5-11.7c-1.3-1.1-2.5-2.1-3.5-3.1
	c7.8-2.4,19-6.8,21.1-7.7l5.2,0.4L545.7,663.2z M584,626.2c5.1-1.6,11.9-4.1,14.8-5.2l3.5,13C598.4,633.1,589.9,630.6,584,626.2z
	 M635.2,620.9c-2-0.5-5.7-1.6-8.7-3.5c2.7-0.7,5.9-1.6,7.4-2l1.8,2.3L635.2,620.9z M626.7,613.3l-4.1,0.6c-7,1-14.7,2.1-22.7,3.8
	c-0.2,0-0.4,0-0.6,0.1c0,0-0.1,0-0.2,0.1c-0.7,0.2-1.5,0.3-2.2,0.5l-1.1,0.3c-8.1,2-15.3,5.3-23.7,9.2c-2.9,1.4-6,2.8-9.2,4.2
	c-4.2,1.6-8.1,4-11.8,6.4l-6.9-0.5L544,638c0,0-0.1,0-0.2,0.1c-1.8,0.7-15.7,6.3-23.2,8.3l-2.3,0.6l1.6,1.7c0.9,1,2,1.9,3,2.9
	c0.1,0.1,0.2,0.2,0.3,0.3c0,0-9.9,2.1-13.9,3.4c2.8-2.7,5-6.1,6.2-10.1c1.8-6.1,1-12.6-2-16.1c-2.7-3.3-7.9-5.3-13.9-5.5
	c-2.8-0.1-5.5,0.3-8.1,1c0.8-0.8,1.6-1.5,2.5-2.2c1.2-1.1,2.5-2,3.8-3.1c0.7-0.6,1.5-1.2,2.2-1.7c1.3-1,2.7-2,4.1-3
	c0.8-0.5,1.6-1.1,2.4-1.6c3.9-2.5,9-5.7,14.5-8.5c10-5.1,21-9.1,32.9-11.9c12-2.7,23.7-4,34.8-3.9c5,0,10.3,0.4,16.7,1.2
	c2,0.3,4.1,0.6,6.1,1l3,0.6c2.1,0.4,4.2,0.8,6.3,1.4c4.8,1.2,9.3,2.6,13.4,4.1c4,1.4,7.5,2.9,10.6,4.4c0.9,0.4,1.8,0.8,2.7,1.3
	l0.1,0.1c0.8,0.4,1.6,0.9,2.3,1.3c0.7,0.4,1.4,0.8,1.9,1c0.7,0.4,1.3,0.8,1.7,1c-1,0.8-2.3,1.7-3.4,2.4c-1.4,1-2.2,1.5-2.7,2
	C642.5,611,633.4,612.2,626.7,613.3z M670.5,640.3c-3.1-5.9-10.7-19.1-19.4-27.8l0.1,0l-0.3-0.2c2.2-1.8,4.6-4.1,4.6-4.1
	c0.3-0.2,1.2-1.2,1.3-1.3c0.5-0.5,0.8-1.2,0.5-1.8c-0.8-1.2-2.1-2.1-7.4-4.6c1.8-13.1,1.4-28.8,1-36.6c0.7,1.7,1.6,3.8,2.5,6
	c4.9,11.5,12.3,31.4,7.4,37C660.8,606.9,669.3,630.7,670.5,640.3z"/>
<path d="M521.4,616c-3.3,0.8-2.7,6,0.6,5.3C525.3,620.5,524.8,615.2,521.4,616z"/>
<path d="M529.5,619.6c-3.3,0.8-2.7,6,0.6,5.3C533.4,624.1,532.8,618.8,529.5,619.6z"/>
<path d="M535.1,609.8c-3.3,0.8-2.7,6,0.6,5.3C539,614.3,538.4,609,535.1,609.8z"/>
<path d="M526.1,608.9c-3.3,0.8-2.7,6,0.6,5.3C530,613.4,529.4,608.1,526.1,608.9z"/>
<path d="M546.5,604.4c-3.3,0.8-2.7,6,0.6,5.3C550.5,608.9,549.9,603.6,546.5,604.4z"/>
<path d="M542.5,612.9c-3.3,0.8-2.7,6,0.6,5.3C546.4,617.4,545.8,612.1,542.5,612.9z"/>
<path d="M538.2,600.9c-3.3,0.8-2.7,6,0.6,5.3C542.1,605.4,541.5,600.1,538.2,600.9z"/>
<path d="M559,603.3c-3.3,0.8-2.7,6,0.6,5.3C562.9,607.8,562.3,602.5,559,603.3z"/>
<path d="M510.6,616.4c-3.3,0.8-2.7,6,0.6,5.3C514.6,620.9,514,615.6,510.6,616.4z"/>
<path d="M552.7,596.9c-3.3,0.8-2.7,6,0.6,5.3C556.6,601.4,556,596.2,552.7,596.9z"/>
<path d="M573.2,600.9c-3.3,0.8-2.7,6,0.6,5.3C577.2,605.4,576.6,600.1,573.2,600.9z"/>
<path d="M566.3,594.6c-3.3,0.8-2.7,6,0.6,5.3C570.3,599.1,569.7,593.9,566.3,594.6z"/>
<path d="M580.2,593.2c-3.3,0.8-2.7,6,0.6,5.3C584.1,597.7,583.5,592.4,580.2,593.2z"/>
<path d="M585.6,599.2c-3.3,0.8-2.7,6,0.6,5.3C589.5,603.7,588.9,598.4,585.6,599.2z"/>
<path d="M592.7,593.6c-3.3,0.8-2.7,6,0.6,5.3C596.6,598.1,596,592.8,592.7,593.6z"/>
<path d="M601.9,599.3c-3.3,0.8-2.7,6,0.6,5.3C605.8,603.8,605.2,598.6,601.9,599.3z"/>
<path d="M605.4,592.2c-3.3,0.8-2.7,6,0.6,5.3C609.3,596.7,608.7,591.4,605.4,592.2z"/>
<path d="M617.3,596.6c-3.3,0.8-2.7,6,0.6,5.3C621.2,601.1,620.6,595.9,617.3,596.6z"/>
<path d="M611.4,601.3c-3.3,0.8-2.7,6,0.6,5.3C615.4,605.8,614.8,600.6,611.4,601.3z"/>
<path d="M627.4,599.7c-3.3,0.8-2.7,6,0.6,5.3C631.3,604.2,630.7,599,627.4,599.7z"/>
<path d="M636.4,599.4c-3.3,0.8-2.7,6,0.6,5.3C640.3,603.9,639.7,598.7,636.4,599.4z"/>
<path d="M553.3,611.3c-3.3,0.8-2.7,6,0.6,5.3C557.2,615.8,556.6,610.5,553.3,611.3z"/>
<path d="M568.1,606c-3.3,0.8-2.7,6,0.6,5.3C572,610.5,571.4,605.2,568.1,606z"/>
<path d="M643.6,604.2c-3.3,0.8-2.7,6,0.6,5.3C647.5,608.7,646.9,603.5,643.6,604.2z"/>
<path d="M544.3,711.8c3.4,2.2,6.6,2.9,9.5,2.9c3.5,0,6.4-1.1,8.1-2c1.3,1.3,3.1,2.1,5.1,2.1c0.1,0,0.3,0,0.4,0l13.5-2.5l1.4,0
	c3.7,0,5.6-1.6,5.6-4.7c0-4-3.2-7.2-7.2-7.2h-3.3c-1.3-0.3-3.3-0.7-6.2-1.6c-10.3-3.1-22.5,0.4-24,0.8c-1.7,0.4-6.7,1.7-7.4,5.3
	C539.2,708.5,543,711,544.3,711.8z M582.3,707.5l-1.6,0c-0.1,0-0.3,0-0.4,0l-13.5,2.4c-1.2-0.1-2.2-1.1-2.2-2.3
	c0-1.3,1.1-2.3,2.3-2.3h9.9c2.3,0.4,3.5,0.4,4.3,0.1c1,0.2,1.8,1,1.8,2.1C582.9,707.5,582.7,707.5,582.3,707.5z M562.1,702.4
	c-1,0.9-1.7,2.1-2,3.4l-5.3-2.8C556.9,702.6,559.5,702.4,562.1,702.4z M547.5,704.6l9.1,4.9c-2.6,0.6-6.1,0.6-9.7-1.8
	c-1.5-0.9-2-1.6-2.2-1.8C545.2,705.4,546.3,704.9,547.5,704.6z"/>
<path d="M642.1,699.7c0-22-7.4-38.5-17.2-38.5h-30.7c-8.2,0-14.8,11.9-16.7,29.2c-4.5-0.8-9.4-1.2-14.7-1.2
	c-22,0-38.5,7.4-38.5,17.2V737c0,9.8,16.6,17.2,38.5,17.2c21.1,0,37.1-6.8,38.4-15.9H625C634.7,738.2,642.1,721.7,642.1,699.7z
	 M594.2,666c5.8,0,12.3,13.8,12.3,33.7c0,12.9-1.9,23.2-5.1,28.9v-22.3c0-0.8-0.1-1.5-0.3-2.2c0.1-0.3,0.3-0.5,0.3-0.9
	c0.5-3.4,2.5-20.5-4.9-25c-2.6-1.6-4.8-1.8-6.6-0.7c-1.8,1.2-2.4,3.4-2.5,5c-0.1,0.2-0.3,0.5-0.3,0.8c0,0.2-0.8,3.5-1.8,9
	c-0.9-0.3-1.9-0.6-3-0.8C583.9,675.7,589.6,666,594.2,666z M592.3,695c-0.7-0.4-1.5-0.8-2.4-1.1c0.2-0.9,0.3-1.9,0.5-2.7L592.3,695z
	 M592.5,681.7c0.2,0,0.7,0.2,1.5,0.7c2.2,1.3,3,6.1,3.1,11.3l-4.8-9.7c0-0.1,0-0.1,0-0.2C592.2,683,592.3,682.1,592.5,681.7z
	 M562.9,694c19.8,0,33.7,6.5,33.7,12.3c0,5.8-13.8,12.3-33.7,12.3c-19.8,0-33.7-6.5-33.7-12.3C529.2,700.5,543.1,694,562.9,694z
	 M596.6,737c0,5.8-13.8,12.3-33.7,12.3c-19.8,0-33.7-6.5-33.7-12.3v-22.2c6.5,5.2,18.8,8.6,33.7,8.6c14.8,0,27.2-3.4,33.7-8.6V737z
	 M625,733.4h-20.8c4.6-6.2,7.2-18.1,7.3-33.7c0-14.8-3.4-27.2-8.6-33.7H625c5.8,0,12.3,13.8,12.3,33.7S630.8,733.4,625,733.4z"/>
</svg>
