<?xml version="1.0" encoding="utf-8"?>
<!-- Generator: Adobe Illustrator 18.0.0, SVG Export Plug-In . SVG Version: 6.00 Build 0)  -->
<!DOCTYPE svg PUBLIC "-//W3C//DTD SVG 1.1//EN" "http://www.w3.org/Graphics/SVG/1.1/DTD/svg11.dtd">
<svg version="1.1" id="Your_Icon" xmlns="http://www.w3.org/2000/svg" xmlns:xlink="http://www.w3.org/1999/xlink" x="0px" y="0px"
	 viewBox="0 944 792 280" enable-background="new 0 944 792 280" xml:space="preserve">
<g>
	<g>
		<path fill="none" stroke="#50B445" stroke-width="4" stroke-linecap="round" stroke-linejoin="round" stroke-miterlimit="10" d="
			M248.3,1052.7C248.2,1052.6,248.4,1052.9,248.3,1052.7c-2.7-4.2-20.8-2.1-20.8,14.8"/>
		<path fill="none" stroke="#50B445" stroke-width="4" stroke-linecap="round" stroke-linejoin="round" stroke-miterlimit="10" d="
			M260.2,1052.6c0.1-0.1-0.3,0.2-0.3,0.1c2.4-4.2,19.1-2.1,19.1,14.8"/>
		<path fill="none" stroke="#50B445" stroke-width="4" stroke-linecap="round" stroke-linejoin="round" stroke-miterlimit="10" d="
			M230.6,1080.5c-1.9-3.6-3.1-7.8-3.1-12.2c0-2.2,0.3-4.3,0.8-6.3"/>
		<path fill="none" stroke="#50B445" stroke-width="4" stroke-linecap="round" stroke-linejoin="round" stroke-miterlimit="10" d="
			M231.4,1081.9c-0.3-0.5-0.6-0.9-0.8-1.4"/>
		<path fill="none" stroke="#50B445" stroke-width="4" stroke-linecap="round" stroke-linejoin="round" stroke-miterlimit="10" d="
			M256,1093.9c-0.9,0.1-1.8,0.1-2.7,0.1c-0.8,0-3.1,0.2-3.9,0.1"/>
		<path fill="none" stroke="#50B445" stroke-width="4" stroke-linecap="round" stroke-linejoin="round" stroke-miterlimit="10" d="
			M277.7,1060.2c0.9,2.6,1.3,5.3,1.3,8.1c0,13.3-10.1,24.2-23,25.6"/>
		<g id="XMLID_95_">
			<g>
				
					<path fill="none" stroke="#50B445" stroke-width="4" stroke-linecap="round" stroke-linejoin="round" stroke-miterlimit="10" d="
					M251.1,1051.7c0,0-10.2,3-11.4,7.2c0,0,12.3-3.4,12.3-1.4s2,5.1,2,5.1"/>
				
					<path fill="none" stroke="#50B445" stroke-width="4" stroke-linecap="round" stroke-linejoin="round" stroke-miterlimit="10" d="
					M256.9,1051.7c0,0,10.2,3,11.4,7.2c0,0-12.3-3.4-12.3-1.4s-2,5.1-2,5.1"/>
				
					<line fill="none" stroke="#50B445" stroke-width="4" stroke-linecap="round" stroke-linejoin="round" stroke-miterlimit="10" x1="251.6" y1="1051.7" x2="251.6" y2="1048.3"/>
				
					<line fill="none" stroke="#50B445" stroke-width="4" stroke-linecap="round" stroke-linejoin="round" stroke-miterlimit="10" x1="256.9" y1="1051.7" x2="256.9" y2="1048.3"/>
				
					<line fill="none" stroke="#50B445" stroke-width="4" stroke-linecap="round" stroke-linejoin="round" stroke-miterlimit="10" x1="256.9" y1="1048.3" x2="251.6" y2="1048.3"/>
			</g>
		</g>
		<path fill="none" stroke="#50B445" stroke-width="4" stroke-linecap="round" stroke-linejoin="round" stroke-miterlimit="10" d="
			M269.6,1081.4c-2.1,3.5-5.5,6.1-9.6,6.9"/>
	</g>
</g>
<path d="M634.4,1022.7L634.4,1022.7L634.4,1022.7z"/>
<path d="M634.4,1022.7L634.4,1022.7L634.4,1022.7z"/>
<g>
	<path fill="#50B445" d="M279.3,1006.2c-12.8-6.8-27.2-10.4-41.7-10.4c-33.1,0-63.2,18.1-78.7,47.3c-23,43.4-6.5,97.4,36.9,120.4
		c12.8,6.8,27.2,10.4,41.7,10.4c33.1,0,63.2-18.1,78.7-47.3C339.2,1083.2,322.7,1029.2,279.3,1006.2z M198.4,1158.6
		c-40.7-21.6-56.2-72.3-34.6-113c14.5-27.4,42.8-44.4,73.9-44.4c13.5,0,27,3.4,39.1,9.8c40.7,21.6,56.2,72.3,34.6,113
		c-14.5,27.4-42.8,44.4-73.9,44.4C223.9,1168.4,210.4,1165,198.4,1158.6z"/>
	<path fill="#50B445" d="M302.4,1047.7c-0.7-1.3-2.4-1.8-3.7-1c-1.3,0.7-1.8,2.4-1,3.7c0.2,0.4,0.4,0.7,0.6,1.1
		c17.1,31.1,7.5,70.7-22.2,90.5c-15,10.1-33,13.8-50.7,10.6c-0.4-0.1-0.8-0.1-1.2-0.2c-1.5-0.3-2.9,0.7-3.2,2.1
		c-0.3,1.5,0.7,2.9,2.1,3.2c4.9,1,9.9,1.5,14.8,1.5c14.6,0,28.9-4.3,41.3-12.6C311.5,1125,321.7,1081.5,302.4,1047.7z"/>
	<path fill="#50B445" d="M194.5,1138.6c-3.1-2.5-6.1-5.3-8.7-8.3c-2-2.2-3.8-4.6-5.5-7.1l-2.3,1.5l2.1-1.8
		c-21-31.6-12.4-74.5,19.1-95.6c9.8-6.5,21-10.5,32.6-11.5c0.4,0,0.7-0.1,1.1-0.1c1.5-0.1,2.7-1.4,2.5-2.9c-0.1-1.5-1.4-2.7-2.9-2.5
		c-12.9,0.9-25.5,5.2-36.3,12.4c-34,22.8-43.3,69.1-20.7,103c0.1,0.1,0.2,0.3,0.2,0.4c1.8,2.7,3.8,5.3,5.9,7.7
		c3.1,3.6,6.6,6.8,10.3,9.7c0.5,0.4,1.1,0.6,1.7,0.6c0.8,0,1.6-0.4,2.2-1.1c0.9-1.2,0.7-2.9-0.5-3.9
		C195,1139,194.7,1138.8,194.5,1138.6z"/>
	<path fill="#50B445" d="M263.3,1020.6c7.8,3.1,14.8,7.5,21,13.2c0.5,0.5,1.2,0.7,1.9,0.7c0.7,0,1.5-0.3,2-0.9
		c1-1.1,0.9-2.9-0.2-3.9c-6.6-6.1-14.3-10.9-22.6-14.2c-1.4-0.6-3,0.1-3.6,1.5C261.2,1018.4,261.9,1020,263.3,1020.6z"/>
</g>
<path fill="#50B445" d="M210.6,1117.7c1.3,2.8,3.4,5,6.1,6.5c0.2,0.1,0.4,0.2,0.6,0.3c2.6,1.2,5.5,1.6,8.3,1.1
	c1.6,0.6,3.2,0.9,5,0.9c1.4,0,2.8-0.2,4.1-0.6c2.9-0.9,5.5-2.7,7.3-5.2c3.9-0.9,7.2-3.5,9.1-7.1c2-3.6,2.2-8,0.6-11.8
	c0.7-2.5,0.6-5.2-0.2-7.7c-1.1-3.5-3.4-6.4-6.5-8.1c-1-0.6-2-1-3-1.3c-1-0.9-2-1.7-3.2-2.3c-2.7-1.4-5.9-2-9-1.4
	c-2.9-1.1-6.1-1.2-9-0.3c-1.3,0.4-2.4,0.9-3.5,1.6c-4.7,0.4-9,3.2-11.2,7.4c-1.3,2.3-1.8,4.9-1.6,7.5c-2.2,3.5-2.8,7.8-1.6,11.7
	C204.1,1112.8,206.9,1116,210.6,1117.7z M211,1092.3c1.4-2.7,4.3-4.5,7.3-4.6c0.6,0,1.1-0.2,1.6-0.5c0.8-0.6,1.6-1,2.6-1.3
	c2-0.6,4.1-0.5,6.1,0.4c0.5,0.3,1.2,0.3,1.8,0.2c2-0.5,4.2-0.2,6,0.8c0.8,0.4,1.6,1,2.3,1.8c0.4,0.4,0.9,0.7,1.4,0.8
	c0.6,0.2,1.3,0.4,1.8,0.7c2.1,1,3.8,2.9,4.5,5.2c0.5,1.8,0.5,3.6-0.1,5.4c-0.2,0.7-0.2,1.5,0.1,2.1c1.2,2.5,1.2,5.4-0.1,7.9
	c-1.3,2.4-3.6,4.1-6.3,4.5c-0.8,0.1-1.5,0.6-2,1.3c-1.1,1.8-2.8,3.2-4.8,3.8s-4.1,0.5-6.1-0.4c-0.4-0.2-0.7-0.2-1.1-0.2
	c-0.2,0-0.4,0-0.6,0.1c-1.6,0.4-3.2,0.3-4.7-0.2c-0.5-0.2-0.9-0.4-1.4-0.6c-1.9-1-3.3-2.7-4-4.7c-0.3-0.8-0.9-1.4-1.7-1.6
	c-2.6-0.9-4.6-3-5.4-5.6c-0.8-2.6-0.3-5.5,1.4-7.7c0.4-0.6,0.6-1.3,0.5-2.1C209.8,1095.8,210.1,1093.9,211,1092.3z"/>
<g>
	<path fill="#50B445" d="M583.7,1054.3C583.7,1054.3,583.8,1054.3,583.7,1054.3l5.8,2.8c0.4,0.2,0.8,0.3,1.2,0.3c1,0,2-0.6,2.4-1.5
		c0.7-1.3,0.1-3-1.2-3.6l-5.7-2.8c-0.3-0.1-0.6-0.2-0.9-0.2c-1.1-0.1-2.2,0.5-2.7,1.5C581.9,1052.1,582.4,1053.6,583.7,1054.3z"/>
	<path fill="#50B445" d="M598.1,1064.5l-5.5-0.8c-1.5-0.2-2.9,0.8-3.1,2.3c-0.2,1.5,0.8,2.9,2.3,3.1l5.5,0.8c0.1,0,0.3,0,0.4,0
		c1.3,0,2.5-1,2.7-2.3C600.6,1066.1,599.5,1064.7,598.1,1064.5z"/>
	<path fill="#50B445" d="M595,1077.1c-0.6-1.4-2.2-2-3.5-1.5l-5.5,2.4c-1.4,0.6-2,2.2-1.5,3.6c0.4,1,1.5,1.7,2.5,1.7
		c0.3,0,0.7-0.1,1-0.2l5.5-2.3C594.9,1080.1,595.6,1078.5,595,1077.1z"/>
	<path fill="#50B445" d="M585.6,1100.2l-0.5,5.9c-0.1,1.5,1,2.8,2.5,2.9c0.1,0,0.1,0,0.2,0c1.4,0,2.6-1.1,2.7-2.5l0.5-5.9
		c0.1-1.5-1-2.8-2.5-2.9C587,1097.6,585.7,1098.7,585.6,1100.2z"/>
	<path fill="#50B445" d="M584.2,1122.5c0.5,0.7,1.3,1,2.1,1c0.6,0,1.2-0.2,1.7-0.6l4.6-3.8c1.2-0.9,1.3-2.6,0.4-3.8
		c-1-1.2-2.7-1.3-3.8-0.4l-4.6,3.7C583.4,1119.7,583.3,1121.4,584.2,1122.5z"/>
	<path fill="#50B445" d="M599.7,1096.6c0.6,0,1.2-0.2,1.7-0.6c1.2-1,1.3-2.6,0.4-3.8l-4.1-5.1c-0.9-1.2-2.6-1.4-3.8-0.4
		c-1.2,0.9-1.4,2.6-0.4,3.8l4.1,5.1C598.1,1096.2,598.9,1096.6,599.7,1096.6z"/>
</g>
<path fill="#50B445" d="M545.5,1058.4c-0.7-1.4-2.3-1.9-3.6-1.2l-16.2,8l-10.4,5.1c-1.3,0.7-1.9,2.3-1.2,3.6c0.5,1,1.4,1.5,2.4,1.5
	c0.4,0,0.8-0.1,1.2-0.3l1.2-0.6l25.4-12.6C545.6,1061.4,546.2,1059.8,545.5,1058.4z"/>
<g>
	<path fill="#50B445" d="M634.4,1066.7c-8.4-40.8-44.7-70.3-86.3-70.3c-6,0-12,0.6-17.9,1.9c-23.1,4.8-42.9,18.2-55.8,37.9
		c-12.9,19.7-17.4,43.2-12.7,66.3c8.4,40.8,44.7,70.3,86.3,70.3c6,0,12-0.6,17.9-1.8C613.5,1161.1,644.2,1114.4,634.4,1066.7z
		 M467,1101.4c-4.5-21.6-0.2-43.7,11.9-62.2c12.1-18.5,30.7-31.1,52.4-35.6c5.5-1.2,11.2-1.7,16.8-1.7c39,0,73,27.7,80.9,66
		c9.2,44.7-19.6,88.5-64.3,97.8c-5.6,1.1-11.2,1.7-16.8,1.7C508.9,1167.3,474.9,1139.6,467,1101.4z"/>
	<path fill="#50B445" d="M509.9,1027.9c14.9-10,32.7-13.7,50.2-10.5c0.4,0.1,0.8,0.1,1.2,0.2c1.5,0.3,2.9-0.7,3.2-2.1
		c0.3-1.5-0.7-2.9-2.1-3.2c-19.4-3.9-39.1,0-55.6,11.1c-32,21.5-42.1,64.5-23,97.9c0.5,0.9,1.4,1.4,2.4,1.4c0.5,0,0.9-0.1,1.3-0.3
		c1.3-0.7,1.8-2.4,1-3.7c-0.2-0.4-0.4-0.7-0.6-1.1C471,1086.8,480.5,1047.6,509.9,1027.9z"/>
	<path fill="#50B445" d="M609.4,1043.9c0-0.1-0.1-0.2-0.2-0.3c-1.8-2.7-3.8-5.2-5.8-7.6c-3.1-3.5-6.5-6.8-10.2-9.6
		c-1.2-0.9-2.9-0.7-3.8,0.5c-0.9,1.2-0.7,2.9,0.5,3.8c0.3,0.2,0.5,0.4,0.8,0.6c3.1,2.5,6,5.3,8.6,8.3c1.9,2.2,3.8,4.6,5.5,7.1
		c0,0.1,0.1,0.2,0.2,0.2c20.7,31.3,12.3,73.7-18.9,94.6c-9.6,6.5-20.8,10.4-32.3,11.3c-0.3,0-0.7,0.1-1,0.1
		c-1.5,0.1-2.6,1.4-2.5,2.9c0.1,1.4,1.3,2.5,2.7,2.5h0.2c12.8-0.9,25.2-5.1,36-12.3C622.7,1123.5,631.9,1077.7,609.4,1043.9z"/>
	<path fill="#50B445" d="M522.5,1148.3c-7.7-3.1-14.7-7.5-20.8-13.1c-1.1-1-2.8-0.9-3.8,0.2s-1,2.8,0.2,3.8
		c6.6,6,14.1,10.8,22.4,14.1c0.3,0.1,0.7,0.2,1,0.2c1.1,0,2.1-0.7,2.5-1.7C524.6,1150.4,523.9,1148.8,522.5,1148.3z"/>
	<path fill="#50B445" d="M563.1,1122.2c6.6-5,6.6-11.3,5.9-19.5c-0.1-0.8-0.2-1.6-0.2-2.4c-0.5-5.2-1.1-11.6-0.5-19.6
		c0.1-3.1,0.3-6.4,0.5-9.6c0.4-5.4,0.8-11,0.5-16.2c-0.1-10.4-9-16.6-23.9-16.9c-0.4,0-0.8,0-1.2,0c-8.2,0-16.8,1.8-23.1,4.9
		l-4.6,2.3c-11.3,5.6-24.2,19.7-25.4,31.9c-0.6,5.6,1.4,10.4,5.6,13.6c2.1,1.8,4.5,3.6,6.8,5.2c2.1,1.5,4.3,2.9,6.4,4.3
		c2.6,1.8,5.4,3.6,8,5.5c6.6,4.3,11.3,8.7,15.2,12.2c5.7,5.2,10.2,9.4,16.6,9.4c2.7,0,5.7-0.8,9-2.4
		C560.4,1124,561.9,1123.1,563.1,1122.2z M536.9,1113.8c-4-3.7-8.9-8.2-15.8-12.7c-2.6-1.9-5.4-3.8-8.1-5.5
		c-2.1-1.4-4.2-2.8-6.2-4.2c-2.3-1.6-4.5-3.3-6.6-5c-2.8-2.2-4-5.1-3.6-8.9c1-9.9,12.6-22.7,22.4-27.5l4.6-2.3
		c4.8-2.3,11.4-3.9,17.9-4.3l0,0c0.9-0.1,1.8-0.1,2.8-0.1c4.6,0,19.6,0.8,19.6,11.7c0.3,4.9-0.1,10.4-0.4,15.6
		c-0.2,3.2-0.5,6.6-0.5,9.7c-0.6,8.3,0,15,0.5,20.3c1,10.6,1.4,15.1-7,19.2c-2.5,1.3-4.7,1.9-6.6,1.9
		C545.6,1121.8,542.1,1118.6,536.9,1113.8z"/>
	<path fill="#50B445" d="M548,1076.1c-0.7-1.3-2.3-1.9-3.6-1.2L528,1083c-1.3,0.6-1.9,2.3-1.2,3.6c0.5,1,1.4,1.5,2.4,1.5
		c0.4,0,0.8-0.1,1.2-0.3l16.4-8.1C548.1,1079.1,548.6,1077.5,548,1076.1z"/>
	<path fill="#50B445" d="M548.5,1091.7l-9.7,4.8c-1.3,0.7-1.9,2.3-1.2,3.6c0.5,1,1.4,1.5,2.4,1.5c0.4,0,0.8-0.1,1.2-0.3l9.7-4.8
		c1.3-0.7,1.9-2.3,1.2-3.6C551.5,1091.6,549.8,1091.1,548.5,1091.7z"/>
</g>
</svg>
