<?xml version="1.0" encoding="utf-8"?>
<!-- Generator: Adobe Illustrator 18.0.0, SVG Export Plug-In . SVG Version: 6.00 Build 0)  -->
<!DOCTYPE svg PUBLIC "-//W3C//DTD SVG 1.1//EN" "http://www.w3.org/Graphics/SVG/1.1/DTD/svg11.dtd">
<svg version="1.1" id="Your_Icon" xmlns="http://www.w3.org/2000/svg" xmlns:xlink="http://www.w3.org/1999/xlink" x="0px" y="0px"
	 viewBox="0 996 792 190" enable-background="new 0 996 792 190" xml:space="preserve">
<path d="M634.4,1494.7L634.4,1494.7L634.4,1494.7z"/>
<path d="M634.4,1494.7L634.4,1494.7L634.4,1494.7z"/>
<g>
	<path fill="#048DC7" d="M385.2,1166.1c-0.1,0-0.2,0-0.3,0c-1.6-0.2-2.8-1.5-2.8-3.1v-83l-9.9,21.8c-0.5,1.1-1.6,1.8-2.8,1.8h-77.4
		c-1.7,0-3.1-1.4-3.1-3.1c0-1.7,1.4-3.1,3.1-3.1h75.5l15-32.9c0.6-1.3,2.1-2.1,3.5-1.7c1.4,0.3,2.4,1.6,2.4,3v66l20.1-100.5
		c0.3-1.6,1.8-2.6,3.3-2.5c1.6,0.2,2.8,1.5,2.8,3.1v83.5l4.7-15.8c0.4-1.3,1.6-2.2,3-2.2h77.9c1.7,0,3.1,1.4,3.1,3.1
		c0,1.7-1.4,3.1-3.1,3.1h-75.6l-10.1,33.8c-0.4,1.5-1.9,2.4-3.4,2.2c-1.5-0.2-2.6-1.5-2.6-3.1v-73.3l-20.1,100.5
		C387.9,1165,386.6,1166.1,385.2,1166.1z"/>
</g>
</svg>
